# xmcd
#
# Track frame offsets:
#	150
#	26768
#	48672
#	74761
#	100278
#	121402
#	142428
#	160366
#	182677
#	203412
#
# Disc length: 3084 seconds
#
# Revision: 1
# Processed by: cddbd v1.5.2PL0 Copyright (c) Steve Scherf et al.
# Submitted via: EZCDAudioConverter 2.4.0.1
#
DISCID=9b0c0a0a
DTITLE=Mong Thi and  Thai Chau - HACD164 - Ngay Thang Hen Ho
DYEAR=1998
DGENRE=blues
TTITLE0=Mong Thi - Chuyen Tinh Quan Ben Ho
TTITLE1=Thai Chau - Ngay Do Xa Roi
TTITLE2=Mong Thi - Khi Em Ve
TTITLE3=Thai Chau - Co Hang Nuoc
TTITLE4=Mong Thi - Nhung Ngay Thang Hen Ho
TTITLE5=Mong Thi - Then Thung
TTITLE6=Thai Chau - Lanh Tron Dem Mua
TTITLE7=Mong Thi - Tham Lang
TTITLE8=Thai Chau - Tinh Nhu May Khoi
TTITLE9=Mong Thi - Chuyen Tinh Ong Buom
EXTD=
EXTT0=
EXTT1=
EXTT2=
EXTT3=
EXTT4=
EXTT5=
EXTT6=
EXTT7=
EXTT8=
EXTT9=
PLAYORDER=
